<svg xmlns="http://www.w3.org/2000/svg" width="70" height="70"><path fill="#4DCB44" d="M48 27c0 8.28-8.73 15-19.5 15-3.6 0-6.98-.75-9.87-2.06C17.24 39.31 7.85 42.15 9 41c1-1 3.95-4.88 3.19-5.78C10.17 32.86 9 30.04 9 27c0-8.28 8.73-15 19.5-15S48 18.72 48 27zm0 0"/><path fill="#4DCB44" d="M63 39c0 3.04-1.17 5.86-3.19 8.22C59.05 48.12 62 52 63 53c1.15 1.15-8.24-1.69-9.63-1.06C50.48 53.25 47.1 54 43.5 54c-8.07 0-15-3.78-17.96-9.16.97.11 1.96.16 2.97.16C40.93 45 51 36.94 51 27c0-.64-.04-1.27-.12-1.89C57.99 27.35 63 32.72 63 39zm0 0"/></svg>