<?xml version="1.0" encoding="UTF-8"?>
<!DOCTYPE svg PUBLIC "-//W3C//DTD SVG 1.1//EN" "http://www.w3.org/Graphics/SVG/1.1/DTD/svg11.dtd">
<svg version="1.1" xmlns="http://www.w3.org/2000/svg" xmlns:xlink="http://www.w3.org/1999/xlink" width="50" height="50"  xml:space="preserve" id="codeIcon">
    <!-- Generated by PaintCode - http://www.paintcodeapp.com -->
    <path id="codeIcon-leftBracket" stroke="none" fill="rgb(77, 203, 68)" d="M 11.43,10.17 L 11.43,7.95 8.84,7.95 C 8.37,7.95 7.91,8.06 7.44,8.27 6.97,8.48 6.54,8.79 6.16,9.19 5.78,9.6 5.46,10.11 5.22,10.71 4.97,11.31 4.85,12.01 4.85,12.8 L 4.85,19.53 C 4.85,20.18 4.76,20.77 4.59,21.31 4.42,21.85 4.19,22.32 3.9,22.7 3.62,23.08 3.29,23.38 2.92,23.59 2.55,23.8 2.17,23.9 1.78,23.9 L 1.78,26.42 C 2.17,26.42 2.55,26.51 2.92,26.71 3.29,26.91 3.62,27.19 3.9,27.56 4.19,27.93 4.42,28.39 4.59,28.93 4.76,29.47 4.85,30.08 4.85,30.75 L 4.85,37.44 C 4.85,38.23 4.97,38.93 5.22,39.53 5.46,40.14 5.78,40.64 6.16,41.05 6.54,41.46 6.97,41.76 7.44,41.97 7.91,42.18 8.37,42.29 8.84,42.29 L 11.43,42.29 11.43,40.07 9.58,40.07 C 9.21,40.07 8.92,39.98 8.7,39.79 8.47,39.61 8.29,39.36 8.16,39.05 8.02,38.74 7.93,38.4 7.88,38.02 7.83,37.63 7.81,37.26 7.81,36.89 L 7.81,30.15 C 7.81,29.22 7.68,28.44 7.42,27.82 7.16,27.21 6.86,26.71 6.51,26.32 6.17,25.94 5.82,25.66 5.46,25.49 5.1,25.32 4.81,25.22 4.59,25.19 L 4.59,25.08 C 4.81,25.03 5.1,24.91 5.46,24.71 5.82,24.52 6.17,24.22 6.51,23.83 6.86,23.43 7.16,22.93 7.42,22.33 7.68,21.72 7.81,20.99 7.81,20.13 L 7.81,13.36 C 7.81,12.96 7.83,12.57 7.88,12.19 7.93,11.81 8.02,11.47 8.16,11.17 8.29,10.88 8.47,10.64 8.7,10.45 8.92,10.27 9.21,10.17 9.58,10.17 L 11.43,10.17 Z M 11.43,10.17" />
    <path id="codeIcon-leftBracket2" stroke="none" fill="rgb(77, 203, 68)" d="M 38.57,10.17 L 38.57,7.95 41.16,7.95 C 41.63,7.95 42.09,8.06 42.56,8.27 43.03,8.48 43.46,8.79 43.84,9.19 44.22,9.6 44.54,10.11 44.78,10.71 45.03,11.31 45.15,12.01 45.15,12.8 L 45.15,19.53 C 45.15,20.18 45.24,20.77 45.41,21.31 45.58,21.85 45.81,22.32 46.1,22.7 46.38,23.08 46.71,23.38 47.08,23.59 47.45,23.8 47.83,23.9 48.22,23.9 L 48.22,26.42 C 47.83,26.42 47.45,26.51 47.08,26.71 46.71,26.91 46.38,27.19 46.1,27.56 45.81,27.93 45.58,28.39 45.41,28.93 45.24,29.47 45.15,30.08 45.15,30.75 L 45.15,37.44 C 45.15,38.23 45.03,38.93 44.78,39.53 44.54,40.14 44.22,40.64 43.84,41.05 43.46,41.46 43.03,41.76 42.56,41.97 42.09,42.18 41.63,42.29 41.16,42.29 L 38.57,42.29 38.57,40.07 40.42,40.07 C 40.79,40.07 41.08,39.98 41.3,39.79 41.53,39.61 41.71,39.36 41.84,39.05 41.98,38.74 42.07,38.4 42.12,38.02 42.17,37.63 42.19,37.26 42.19,36.89 L 42.19,30.15 C 42.19,29.22 42.32,28.44 42.58,27.82 42.84,27.21 43.14,26.71 43.49,26.32 43.83,25.94 44.18,25.66 44.54,25.49 44.9,25.32 45.19,25.22 45.41,25.19 L 45.41,25.08 C 45.19,25.03 44.9,24.91 44.54,24.71 44.18,24.52 43.83,24.22 43.49,23.83 43.14,23.43 42.84,22.93 42.58,22.33 42.32,21.72 42.19,20.99 42.19,20.13 L 42.19,13.36 C 42.19,12.96 42.17,12.57 42.12,12.19 42.07,11.81 41.98,11.47 41.84,11.17 41.71,10.88 41.53,10.64 41.3,10.45 41.08,10.27 40.79,10.17 40.42,10.17 L 38.57,10.17 Z M 38.57,10.17" />
    <circle id="codeIcon-oval" stroke="none" fill="rgb(77, 203, 68)" cx="13.5" cy="25.5" r="2.5" />
    <circle id="codeIcon-oval2" stroke="none" fill="rgb(77, 203, 68)" cx="25.5" cy="25.5" r="2.5" />
    <circle id="codeIcon-oval3" stroke="none" fill="rgb(77, 203, 68)" cx="36.5" cy="25.5" r="2.5" />
</svg>
