<?xml version="1.0" encoding="UTF-8"?>
<!DOCTYPE svg PUBLIC "-//W3C//DTD SVG 1.1//EN" "http://www.w3.org/Graphics/SVG/1.1/DTD/svg11.dtd">
<svg version="1.1" xmlns="http://www.w3.org/2000/svg" xmlns:xlink="http://www.w3.org/1999/xlink" width="70" height="70"  xml:space="preserve" id="locateIcon">
    <!-- Generated by PaintCode - http://www.paintcodeapp.com -->
    <path id="locateIcon-bezier2" stroke="none" fill="rgb(77, 203, 68)" d="M 35,13.5 C 32.84,13.5 30.84,14.22 29.25,15.44 26.97,17.18 25.5,19.92 25.5,23 25.5,28.25 29.75,32.5 35,32.5 40.25,32.5 44.5,28.25 44.5,23 44.5,17.75 40.25,13.5 35,13.5 Z M 58.5,29.5 C 56.5,40.5 35.5,64.5 35.5,64.5 35.5,64.5 13.5,40.5 11.5,29.5 11.18,27.75 11.15,24.84 11.91,21.64 13.64,14.33 19.5,5.5 35.5,5.5 56.53,5.5 59.46,24.25 58.5,29.5 Z M 58.5,29.5" />
</svg>
