<?xml version="1.0" encoding="UTF-8"?>
<!DOCTYPE svg PUBLIC "-//W3C//DTD SVG 1.1//EN" "http://www.w3.org/Graphics/SVG/1.1/DTD/svg11.dtd">
<svg version="1.1" xmlns="http://www.w3.org/2000/svg" xmlns:xlink="http://www.w3.org/1999/xlink" width="76" height="70"  xml:space="preserve" id="suitcaseIcon">
    <!-- Generated by PaintCode - http://www.paintcodeapp.com -->
    <path id="suitcaseIcon-rectangle" stroke="none" fill="rgb(77, 203, 68)" d="M 15,52.5 C 15,54.99 17.01,57 19.5,57 L 24,57 24,24 19.5,24 C 17.01,24 15,26.01 15,28.5 Z M 15,52.5" />
    <path id="suitcaseIcon-rectangle2" stroke="none" fill="rgb(77, 203, 68)" d="M 54,57 L 58.5,57 C 60.99,57 63,54.99 63,52.5 L 63,28.5 C 63,26.01 60.99,24 58.5,24 L 54,24 Z M 54,57" />
    <path id="suitcaseIcon-bezier" stroke="none" fill="rgb(77, 203, 68)" d="M 43.5,21 L 34.5,21 C 33.67,21 33,21.67 33,22.5 33,23.33 33.67,24 34.5,24 L 43.5,24 C 44.33,24 45,23.33 45,22.5 45,21.67 44.33,21 43.5,21 Z M 51,21 L 51,57 27,57 27,21 C 27,17.69 29.69,15 33,15 L 45,15 C 48.31,15 51,17.69 51,21 Z M 51,21" />
</svg>
